# xmcd
#
# Track frame offsets:
#	150
#	16082
#	30828
#	44858
#	60218
#	73241
#	87448
#	105184
#	117663
#	136370
#	152086
#	169052
#	189354
#	207456
#	223556
#	238286
#	252388
#	267716
#	282603
#	298824
#
# Disc length: 4221 seconds
#
# Revision: 1
# Processed by: cddbd v1.5.2PL0 Copyright (c) Steve Scherf et al.
# Submitted via: audiograbber 1.83.01
#
DISCID=37107b14
DTITLE=Various Artist - Rinnat Rottingilla
DYEAR=2014
DGENRE=Pop
TTITLE0=Tyyne and Martta - Kuumat Aallot
TTITLE1=Meiju Suvas - Hormoonihoitoa
TTITLE2=Sonja Lumme - Ratsasta Luoksein
TTITLE3=Kike Elomaa - Kristoffer Kolumbus
TTITLE4=Kikka - Tartu Tiukasi Hanuriin
TTITLE5=Katja Lukin - Rokaten Ja Rollaten - Potpuri
TTITLE6=Muska - Paha Tyttö
TTITLE7=Tynne and Martta - Kuumakymppinen
TTITLE8=Eini - Yes Sir, Alkaa Polttaa
TTITLE9=Kaija Pohjola - Hei Mies!
TTITLE10=Anja Piipponen - De Va Kukku De
TTITLE11=Leena Nilsson - Metsäratio
TTITLE12=Monica - Siideriä
TTITLE13=Mikko Alatalo - Tytöt Tahtoo Pitää Hauskaa
TTITLE14=Anita Hirvonen - Nyt Miestä Petkutetaan
TTITLE15=Koivistolaiset - Elkeet Kuin Pedolla
TTITLE16=Kike Elomaa - Mikset Aloitetta Tee
TTITLE17=Varpu Virta - Tottele Vain
TTITLE18=Aila-Inkeri - Rinnat Rottingilla
TTITLE19=Kari Kuuva - Rupsahda Rauhassa Rakkaani Mun
EXTD=TR.
EXTT0=
EXTT1=
EXTT2=
EXTT3=
EXTT4=
EXTT5=
EXTT6=
EXTT7=
EXTT8=
EXTT9=
EXTT10=
EXTT11=
EXTT12=
EXTT13=
EXTT14=
EXTT15=
EXTT16=
EXTT17=
EXTT18=
EXTT19=
PLAYORDER=
